<svg xmlns="http://www.w3.org/2000/svg" viewBox="0 0 1486 1111">
<defs>
<style>.cls-1{fill:#000b1f;}.cls-2,.cls-4{fill:#fff;}.cls-3{fill:#22b573;}.cls-4{font-size:212.65px;font-family:Anita--Semi-square, Anita  Semi-square;}</style>
</defs>
<title>Recurso 5</title>
<g id="Capa_2" data-name="Capa 2">
<g id="Capa_1-2" data-name="Capa 1">
<rect class="cls-1" width="1486" height="1111"/>
<path class="cls-2" d="M614.92,290.92l-50.11-50.11L343.23,462.39,556.42,675.58l.81-.8,49.3-49.31L443.45,462.39Zm50.9-50.45-.07-.07-50.11,50.11.29.28,163,163L608.87,623.87,607.71,625l50.11,50.11L659,674,879.16,453.81Z"/>
<path class="cls-3" d="M749.65,57.28l-111,111.05,50.33,49.82,0,0,60.68-60.68,305.24,305.24L749.65,768l-91.83-91.83-50.11,50.11L749.65,868.2l405.46-405.46Z"/>
<text class="cls-4" transform="translate(247 1027.82) scale(1.16 1)">Codesk</text>
</g>
</g>
</svg>