<svg id="Capa_1" data-name="Capa 1" xmlns="http://www.w3.org/2000/svg" viewBox="0 0 1366.5 768.51"><defs><style>.cls-1,.cls-3{fill:#fff;}.cls-2{fill:#4312a0;}.cls-3{opacity:0.06;}</style></defs><rect class="cls-1" width="1366" height="768"/><path class="cls-2" d="M0,594.71S263.5,460.5,380.5,530.5s229,127,479,105c117.77-10.36,159-98,321-16,67,33.9,186,9,186,9l-1,140s-95.58-.92-213,0c-127,1-243-96-393-36-59.09,23.64-381,58-549-14C158.29,696.13,0,768,0,768Z"/><path class="cls-3" d="M7,622c-4.39-24.1,41.34-55.84,82-68,65.89-19.71,146.12,3.74,149,30,3.1,28.25-83.6,57.08-112,65-30.54,8.51-53.09,9.42-75,3C40.88,649,10.29,640.06,7,622Z"/><path class="cls-3" d="M601,676c-.72-42.23,82.93-90.31,131-70,38,16.06,33.58,66.36,69,74,36.13,7.79,64.3-39.48,85-28,15.9,8.82,21.32,48.93,4,68-28.43,31.31-87.53-27.85-182-3-22.28,5.86-43.72,15.66-68,6C620.7,715.32,601.34,696.05,601,676Z"/><path class="cls-3" d="M1155,647c15.19-28.13,127.82,18.41,147-15,7.72-13.45-5.11-30.42,3-36,10.51-7.23,45.81,11.78,47,35,.88,17.14-17.18,30-27,37-16.22,11.55-26.09,11.31-104,22-25,3.43-35.9,5.09-47-2C1160.1,679.12,1148.87,658.35,1155,647Z"/></svg>