<svg id="Capa_1" data-name="Capa 1" xmlns="http://www.w3.org/2000/svg" viewBox="0 0 1366.5 768.51"><defs><style>.cls-1,.cls-3{fill:#fff;}.cls-2{fill:#4312a0;}.cls-3{opacity:0.06;}</style></defs><rect class="cls-1" width="1366" height="768"/><path class="cls-2" d="M1366.5,594.71S1103,460.5,986,530.5s-229,127-479,105c-117.77-10.36-159-98-321-16-67,33.9-186,9-186,9V768s96.58-.42,214,.5c127,1,243-96,393-36,59.09,23.64,381,58,549-14,52.21-22.37,210.5,49.5,210.5,49.5Z"/><path class="cls-3" d="M22,660c-4.39-24.1,41.34-55.84,82-68,65.89-19.71,146.12,3.74,149,30,3.1,28.25-83.6,57.08-112,65-30.54,8.51-53.09,9.42-75,3C55.88,687,25.29,678.06,22,660Z"/><path class="cls-3" d="M1353.7,612c.72-42.23-82.93-90.31-131-70-38,16.06-33.58,66.36-69,74-36.14,7.79-64.3-39.48-85-28-15.9,8.82-21.32,48.93-4,68,28.43,31.31,87.53-27.85,182-3,22.28,5.86,43.72,15.66,68,6C1334,651.32,1353.36,632.05,1353.7,612Z"/><path class="cls-3" d="M623,669c15.19-28.13,127.82,18.41,147-15,7.72-13.45-5.11-30.42,3-36,10.51-7.23,45.81,11.78,47,35,.88,17.14-17.18,30-27,37-16.22,11.55-26.09,11.31-104,22-25,3.43-35.9,5.09-47-2C628.1,701.12,616.87,680.35,623,669Z"/></svg>