<svg id="Capa_1" data-name="Capa 1" xmlns="http://www.w3.org/2000/svg" viewBox="0 0 1366.11 768"><defs><style>.cls-1,.cls-3{fill:#fff;}.cls-2{fill:#4312a0;}.cls-3{opacity:0.04;}</style></defs><rect class="cls-1" x="0.11" width="1366" height="768"/><path class="cls-2" d="M0,614.07s195-95,318-10.94,347,100.88,509,42,182.68-45.95,335-10.5c149,34.67,204,26.27,204,26.27V0H0Z" transform="translate(0.11)"/><path class="cls-3" d="M40,620S-29,382,14,365s273.94,34.15,273.47-41.42S542,346,512,421s-53,171-10,206,66,94,66,94Z" transform="translate(0.11)"/><path class="cls-3" d="M879,350c-45.3,51.88-55.85,136.3-23,201,50,98.39,189.49,129.9,229,92,30-28.82-2-93.61,25-108,28-14.91,65.73,52.84,134,50,55-2.29,90.77-48.69,94-53,2.38-3.18,37.36-51.26,25-101-19.29-77.6-139.66-102.38-201-115C1068.9,296.85,947.28,271.81,879,350Z" transform="translate(0.11)"/></svg>